<svg width="95" height="95" viewBox="0 0 95 95" fill="none" xmlns="http://www.w3.org/2000/svg">
<path d="M5.25188 49.0842L19.3436 59.3759L13.9919 75.9494C13.127 78.5199 13.1161 81.3011 13.9607 83.8783C14.8052 86.4556 16.4601 88.6908 18.6786 90.2509C20.859 91.8611 23.5014 92.7237 26.2119 92.7101C28.9224 92.6966 31.556 91.8076 33.7202 90.1757L47.4992 80.0344L61.2821 90.1638C63.4586 91.7648 66.0867 92.6343 68.7886 92.6475C71.4904 92.6607 74.1269 91.8168 76.3189 90.2371C78.5109 88.6574 80.1455 86.4234 80.9878 83.8561C81.8301 81.2889 81.8366 78.5206 81.0065 75.9494L75.6548 59.3759L89.7465 49.0842C91.9202 47.495 93.536 45.2595 94.3633 42.697C95.1905 40.1346 95.1868 37.3762 94.3527 34.816C93.5186 32.2557 91.8968 30.0246 89.7188 28.4411C87.5409 26.8577 84.9183 26.0031 82.2256 25.9992H64.9158L59.6631 9.62756C58.8371 7.05052 57.214 4.80241 55.0278 3.20741C52.8416 1.6124 50.2054 0.75293 47.4992 0.75293C44.793 0.75293 42.1567 1.6124 39.9706 3.20741C37.7844 4.80241 36.1612 7.05052 35.3352 9.62756L30.0825 25.9992H12.7886C10.0959 26.0031 7.47327 26.8577 5.29535 28.4411C3.11743 30.0246 1.49559 32.2557 0.661491 34.816C-0.172607 37.3762 -0.176299 40.1346 0.650942 42.697C1.47818 45.2595 3.09404 47.495 5.26772 49.0842H5.25188Z" fill="#AEAEAE"/>
</svg>
